<?xml version="1.0" encoding="utf-8"?>
<!-- Generator: Adobe Illustrator 24.2.3, SVG Export Plug-In . SVG Version: 6.00 Build 0)  -->
<svg version="1.1" xmlns="http://www.w3.org/2000/svg" xmlns:xlink="http://www.w3.org/1999/xlink" x="0px" y="0px"
	 viewBox="0 0 1024 500" style="enable-background:new 0 0 1024 500;" xml:space="preserve">
<style type="text/css">
	.st0{fill:none;}
	.st1{fill:#FFFFFF;}
	.st2{fill:none;stroke:#000000;stroke-width:10;stroke-miterlimit:10;}
	.st3{fill:none;stroke:#FFFFFF;stroke-width:10;stroke-miterlimit:10;}
	.st4{fill:none;stroke:#FFFFFF;stroke-width:16;stroke-miterlimit:10;}
</style>
<g id="Layer_2">
	<rect y="0.3" width="1024" height="500"/>
	<rect id="_x3C_Slice_x3E_" y="-0.5" class="st0" width="1024" height="501"/>
</g>
<g id="Layer_1">
	<polygon class="st1" points="464.3,236.2 448.6,217.3 413.5,217.3 413.5,230.7 413.5,288.4 465.2,288.4 465.2,236.7 	"/>
	<path class="st2" d="M1089,435.5"/>
	<path class="st3" d="M485.8,235.8"/>
	<path class="st3" d="M512.3,275.3"/>
	<path class="st3" d="M538.3,236.4"/>
	<path class="st4" d="M609.8,330.9c16.3-23.3,25.8-51.6,25.8-82c0-29.2-8.9-56.5-23.9-79.2"/>
	<path class="st3" d="M538.3,236.4"/>
	<path class="st3" d="M512.3,275.3"/>
	<path class="st3" d="M485.8,235.8"/>
	<path class="st4" d="M562.3,298.9c9.5-13.8,15-30.7,15-48.8c0-17.5-5.2-34.1-14.1-47.9"/>
	<path class="st0" d="M180.3,166.7h160.1v160.1H180.3V166.7z"/>
	<path class="st1" d="M250.7,148.5l-89.3-0.1c-9.8,0-17.8,8-17.8,17.9v160.8c0,9.8,8,17.9,17.8,17.9h89.3c9.8,0,17.9-8,17.9-17.9
		V166.3C268.5,156.5,260.5,148.5,250.7,148.5z M250.7,309.3h-89.3V184.2h89.3V309.3z"/>
	<path class="st1" d="M874.5,148.5l-89.3-0.1c-9.8,0-17.8,8-17.8,17.9v160.8c0,9.8,8,17.9,17.8,17.9h89.3c9.8,0,17.9-8,17.9-17.9
		V166.3C892.3,156.5,884.3,148.5,874.5,148.5z M874.5,309.2h-89.3V184.1h89.3V309.2z"/>
</g>
</svg>
