<?xml version="1.0" encoding="utf-8"?>
<!-- Generator: Adobe Illustrator 24.2.3, SVG Export Plug-In . SVG Version: 6.00 Build 0)  -->
<svg version="1.1" id="Layer_1" xmlns="http://www.w3.org/2000/svg" xmlns:xlink="http://www.w3.org/1999/xlink" x="0px" y="0px"
	 viewBox="0 0 108 108" style="enable-background:new 0 0 108 108;" xml:space="preserve">
<style type="text/css">
	.st0{fill:#FFFFFF;}
	.st1{fill:none;stroke:#000000;stroke-width:10;stroke-miterlimit:10;}
	.st2{fill:none;stroke:#FFFFFF;stroke-width:10;stroke-miterlimit:10;}
	.st3{fill:none;stroke:#FFFFFF;stroke-width:5;stroke-miterlimit:10;}
</style>
<rect x="-71" y="-15" width="234" height="147"/>
<polygon class="st0" points="60,71.7 56.6,67.6 49,67.6 49,70.5 49,83 60.2,83 60.2,71.8 "/>
<path class="st1" d="M631,245"/>
<path class="st2" d="M27.8,39.8"/>
<path class="st2" d="M54.3,79.3"/>
<path class="st2" d="M80.3,40.4"/>
<path class="st3" d="M80.3,40.4C72.7,35.1,63.5,32,53.6,32c-9.5,0-18.4,2.9-25.8,7.8"/>
<path class="st2" d="M80.3,40.4"/>
<path class="st2" d="M54.3,79.3"/>
<path class="st2" d="M27.8,39.8"/>
<path class="st3" d="M69.9,55.9C65.4,52.8,59.9,51,54,51c-5.7,0-11.1,1.7-15.6,4.6"/>
<g>
	<g>
		<path class="st0" d="M56.1,73.6c1.9,0,1.9-3,0-3S54.1,73.6,56.1,73.6L56.1,73.6z"/>
	</g>
</g>
</svg>
