<?xml version="1.0" encoding="utf-8"?>
<!-- Generator: Adobe Illustrator 24.2.3, SVG Export Plug-In . SVG Version: 6.00 Build 0)  -->
<svg version="1.1" id="Layer_1" xmlns="http://www.w3.org/2000/svg" xmlns:xlink="http://www.w3.org/1999/xlink" x="0px" y="0px"
	 viewBox="0 0 108 108" style="enable-background:new 0 0 108 108;" xml:space="preserve">
<style type="text/css">
	.st0{fill:#FFFFFF;}
	.st1{fill:none;stroke:#000000;stroke-width:10;stroke-miterlimit:10;}
	.st2{fill:none;stroke:#FFFFFF;stroke-width:10;stroke-miterlimit:10;}
	.st3{fill:none;stroke:#FFFFFF;stroke-width:5;stroke-miterlimit:10;}
</style>
<polygon class="st0" points="60.02,71.66 56.61,67.63 49.02,67.63 49.02,70.48 49.02,83 60.18,83 60.18,71.85 "/>
<path class="st1" d="M631,245"/>
<path class="st2" d="M27.76,39.82"/>
<path class="st2" d="M54.25,79.26"/>
<path class="st2" d="M80.33,40.43"/>
<path class="st3" d="M80.33,40.43C72.71,35.11,63.5,32,53.59,32c-9.52,0-18.38,2.88-25.83,7.82"/>
<path class="st2" d="M80.33,40.43"/>
<path class="st2" d="M54.25,79.26"/>
<path class="st2" d="M27.76,39.82"/>
<path class="st3" d="M69.95,55.89c-4.59-3.06-10.05-4.85-15.93-4.85c-5.74,0-11.09,1.7-15.61,4.64"/>
<g>
	<g>
		<path class="st0" d="M56.07,73.59c1.93,0,1.93-3,0-3C54.14,70.59,54.14,73.59,56.07,73.59L56.07,73.59z"/>
	</g>
</g>
</svg>
